# xmcd
# 
# Track frame offsets:
#     150
#     18365
#     37874
#     60157
#     78166
#     90130
#     109998
#     120974
#     140342
#     168853
# 
# Disc length: 2467
# 
# Revision: 4
# Processed by: cddbd v1.5.2PL0 Copyright (c) Steve Scherf et al.
# Submitted via: fre:ac v1.0.31
# 
DISCID=6009a10a
DTITLE=Ten Years After - Positive Vibrations
DYEAR=1974
DGENRE=Blues Rock
TTITLE0=Nowhere to Run
TTITLE1=Positive Vibrations
TTITLE2=Stone Me
TTITLE3=Without You
TTITLE4=Going Back to Birmingham
TTITLE5=Its Getting Harder
TTITLE6=You're Driving Me Crazy
TTITLE7=Look into My Life
TTITLE8=Look Me Straight into the Eyes
TTITLE9=I Wanted to Boogie
EXTD=YEAR: 1974
EXTT0=
EXTT1=
EXTT2=
EXTT3=
EXTT4=
EXTT5=
EXTT6=
EXTT7=
EXTT8=
EXTT9=
PLAYORDER=
